<svg width="98" height="45" viewBox="0 0 98 45" fill="none" xmlns="http://www.w3.org/2000/svg">
<rect x="13" y="13" width="72" height="18" fill="#179AD2"/>
<path d="M38.5151 26V17.2727H41.856C42.4867 17.2727 43.0108 17.3722 43.4284 17.571C43.8489 17.767 44.1628 18.0355 44.3702 18.3764C44.5804 18.7173 44.6855 19.1037 44.6855 19.5355C44.6855 19.8906 44.6174 20.1946 44.481 20.4474C44.3446 20.6974 44.1614 20.9006 43.9313 21.0568C43.7012 21.2131 43.4441 21.3253 43.16 21.3935V21.4787C43.4696 21.4957 43.7665 21.5909 44.0506 21.7642C44.3375 21.9347 44.5719 22.1761 44.7537 22.4886C44.9355 22.8011 45.0265 23.179 45.0265 23.6222C45.0265 24.0739 44.9171 24.4801 44.6983 24.8409C44.4796 25.1989 44.15 25.4815 43.7097 25.6889C43.2694 25.8963 42.7154 26 42.0478 26H38.5151ZM40.0961 24.679H41.7963C42.3702 24.679 42.7836 24.5696 43.0364 24.3509C43.2921 24.1293 43.4199 23.8452 43.4199 23.4986C43.4199 23.2401 43.356 23.0071 43.2282 22.7997C43.1003 22.5895 42.9185 22.4247 42.6827 22.3054C42.4469 22.1832 42.1657 22.1222 41.839 22.1222H40.0961V24.679ZM40.0961 20.9844H41.66C41.9327 20.9844 42.1784 20.9347 42.3972 20.8352C42.6159 20.733 42.7878 20.5895 42.9128 20.4048C43.0407 20.2173 43.1046 19.9957 43.1046 19.7401C43.1046 19.402 42.9853 19.1236 42.7466 18.9048C42.5108 18.6861 42.16 18.5767 41.6941 18.5767H40.0961V20.9844ZM49.1887 26.1278C48.5495 26.1278 47.9956 25.9872 47.5268 25.706C47.0581 25.4247 46.6944 25.0312 46.4359 24.5256C46.1802 24.0199 46.0524 23.429 46.0524 22.7528C46.0524 22.0767 46.1802 21.4844 46.4359 20.9759C46.6944 20.4673 47.0581 20.0724 47.5268 19.7912C47.9956 19.5099 48.5495 19.3693 49.1887 19.3693C49.8279 19.3693 50.3819 19.5099 50.8507 19.7912C51.3194 20.0724 51.6816 20.4673 51.9373 20.9759C52.1958 21.4844 52.3251 22.0767 52.3251 22.7528C52.3251 23.429 52.1958 24.0199 51.9373 24.5256C51.6816 25.0312 51.3194 25.4247 50.8507 25.706C50.3819 25.9872 49.8279 26.1278 49.1887 26.1278ZM49.1973 24.892C49.5439 24.892 49.8336 24.7969 50.0666 24.6065C50.2995 24.4134 50.4728 24.1548 50.5865 23.831C50.7029 23.5071 50.7612 23.1463 50.7612 22.7486C50.7612 22.348 50.7029 21.9858 50.5865 21.6619C50.4728 21.3352 50.2995 21.0753 50.0666 20.8821C49.8336 20.6889 49.5439 20.5923 49.1973 20.5923C48.8422 20.5923 48.5467 20.6889 48.3109 20.8821C48.0779 21.0753 47.9032 21.3352 47.7868 21.6619C47.6731 21.9858 47.6163 22.348 47.6163 22.7486C47.6163 23.1463 47.6731 23.5071 47.7868 23.831C47.9032 24.1548 48.0779 24.4134 48.3109 24.6065C48.5467 24.7969 48.8422 24.892 49.1973 24.892ZM54.6497 19.4545L55.9707 21.8707L57.313 19.4545H58.9451L56.9721 22.7273L58.9792 26H57.3556L55.9707 23.6435L54.5985 26H52.9622L54.9565 22.7273L53.0133 19.4545H54.6497Z" fill="white"/>
</svg>
